<mxfile host="65bd71144e">
    <diagram id="HIP3nbAZw_EuaXWnEj3U" name="Page-1">
        <mxGraphModel dx="532" dy="410" grid="1" gridSize="10" guides="1" tooltips="1" connect="1" arrows="1" fold="1" page="1" pageScale="1" pageWidth="850" pageHeight="1100" math="0" shadow="0">
            <root>
                <mxCell id="0"/>
                <mxCell id="1" parent="0"/>
                <mxCell id="7" value="http://ics2o.mths.ca" style="swimlane;whiteSpace=wrap;html=1;" parent="1" vertex="1">
                    <mxGeometry x="40" y="40" width="760" height="480" as="geometry"/>
                </mxCell>
                <mxCell id="8" value="Get your Discount" style="whiteSpace=wrap;html=1;" vertex="1" parent="7">
                    <mxGeometry y="20" width="760" height="40" as="geometry"/>
                </mxCell>
                <mxCell id="9" value="what you will pay" style="text;html=1;align=center;verticalAlign=middle;resizable=0;points=[];autosize=1;strokeColor=none;fillColor=none;" vertex="1" parent="7">
                    <mxGeometry y="70" width="110" height="30" as="geometry"/>
                </mxCell>
                <mxCell id="11" value="&lt;font style=&quot;font-size: 12px;&quot;&gt;age&lt;/font&gt;" style="text;html=1;align=center;verticalAlign=middle;resizable=0;points=[];autosize=1;strokeColor=none;fillColor=none;fontSize=18;" vertex="1" parent="7">
                    <mxGeometry x="20" y="100" width="40" height="40" as="geometry"/>
                </mxCell>
                <mxCell id="12" value="" style="rounded=1;whiteSpace=wrap;html=1;fontSize=12;" vertex="1" parent="7">
                    <mxGeometry x="30" y="140" width="100" height="20" as="geometry"/>
                </mxCell>
                <mxCell id="13" value="day" style="text;html=1;align=center;verticalAlign=middle;resizable=0;points=[];autosize=1;strokeColor=none;fillColor=none;fontSize=12;" vertex="1" parent="7">
                    <mxGeometry x="20" y="190" width="40" height="30" as="geometry"/>
                </mxCell>
                <mxCell id="14" value="" style="rounded=1;whiteSpace=wrap;html=1;fontSize=12;" vertex="1" parent="7">
                    <mxGeometry x="30" y="220" width="120" height="20" as="geometry"/>
                </mxCell>
                <mxCell id="15" value="Get discount" style="rounded=1;whiteSpace=wrap;html=1;fontSize=12;" vertex="1" parent="7">
                    <mxGeometry x="10" y="270" width="120" height="30" as="geometry"/>
                </mxCell>
                <mxCell id="16" value="" style="shape=image;verticalLabelPosition=bottom;labelBackgroundColor=default;verticalAlign=top;aspect=fixed;imageAspect=0;image=data:image/jpeg,/9j/4AAQSkZJRgABAQAAAQABAAD/2wCEAAkGBxMSEBUTExIWFhUXFRoYGBgYGBgbGhcYFhgWFxcaGBoYHysgGh4lHRUXITEhJSorLi4uGB8zODMtNygtLisBCgoKDg0OGxAQGy8mICUwLy0tKzIvLS8vLy8wLS0tLy0vNS8tLy8vNS0tLS0tLy0yLS0tLy0tLS0vLy0tLS0tLf/AABEIAK4BIgMBIgACEQEDEQH/xAAbAAEAAwEBAQEAAAAAAAAAAAAABAUGAwcCAf/EAEAQAAIBAgQBCgMFBwQBBQAAAAECAAMRBBIhMQUGEyIyQVFhcYGhUpGxBxRCwdEzYnKCkqLhIySy8EMVc5PC8f/EABoBAQACAwEAAAAAAAAAAAAAAAADBAIFBgH/xAAyEQABAwICCAYCAgIDAAAAAAABAAIRAyEEMQUSQVFxobHwYYGRwdHhEyIy8UJSIzOi/9oADAMBAAIRAxEAPwD3GIiESIiESIiESIiESIiESIiESIiESIiESIiESIiESJV4/jNKlcXzN8K9nmeyZvHcZq1dL5V+EfmdzKGI0jRo2zO4e+7r4K1RwdSpfIbz39eK0eP43SpaXzN3D8z2Snw/KN+cu4GQ6ZR2eN9yZnMRXCC7G31PgB2zk2MIF+afL32F/O17zTP0jiajg5tgNnzv6Lb0tG0w2ImbT8L0zD4tHF1cH1/KSZ5tSqhgCDcHtE0fJjGKL07NmY3vuLAdvd2/ObHC6UFV4Y9seM7d0R7rX4jAfjaXAkxsj7WmiIm3WuSIiESIiESIiESIiESIiESIiESIiESIiESIiESIiESIiESIiESIiESJWY/i9KloTdvhXU+vYPWZviPHatS4ByL3LufM7/KUcTpGjQMEydw99g67grVDB1KtwIG89ytJj+M0qWhOZvhX8zsJnMfxupU0vkX4V7fMyoqVAouxAHef+6yPzzP1FsPiYf8AEbn1tNDX0hXrj/Vvh7nPpwW4w+j6bL5+Jjls6ld61RU1YgD/ALpIzYpmYKoyZr2Zhqbdw7/OdaeFANySzd7dnkOyfGOoll6PWU5lPiP129ZSYWAxz3eXz6K+3Vn3+uO9fdDDKpuek/xNqfTu9JF4hxY0irZM1IsqtUVh0Wd8g6Pb0iL6yAz1ufNenRFUPTVUJqBBTIvnVlOti1jdQSbeEYbgKUl5ys2Zg7ViM7LRVyS1whOUWJ0J895Lqhpl5nK3XI2jx8gcxA8vcSDn33AVphehUZOw9JfzHofrLXCYxqbZkNiBbv37JnsJjvvNEVkR1ZDcZha9h0sp2ZSCQGGhlvhaoZQw2IvPHa7XTk4WPgfv5WTwHtDjcHPvxEL0bDvdQbg6C5G17TtMzyWxYsaYU3vmLXFraAdt/wD9mmnW4WuK1IPC5ivS/FULUiIlhRJERCJERCJERCJERCJERCJERCJERCJERCJERCJERCJErsfxWlR6zXPwjU/49ZnOIcoalS4XoL4HU+Z/SUsTpCjh7OMncM/rzVmjhKtW4Ft57utHjuK0qWjNdvhGp9e6ZvH8eq1LhegvcN/U/pKipUA1JA7Tf9eyRVxDPoi6fG9wPQbtNDiNI162X6t8Pc5+kcFucNo9jb5+Jy79Su1VgBckAeJnAV3fqLYfHUvb+XtPtPunhBfM5Lt3nYeQ2EkHea79Wi1+np3wV6Wjx6LhSwYvma7t3ns8hsJJtPkGVvHuLfdaDVsjOFtopA1Y2BJOwvbWZDWqODcybBYPeYlxyVgxn6Gnk/F+UWJxLBXbmqTW0QEDKTbMW3ceI002npHJ7h33bDJR5w1AuzEW0OtgB2ayetgzQYC8iTs+8vJQsrCoYaLBROL87TRxQPS/aUxa4Z01amR3MB2TthOF5wr4gmq9gwVhZEJF+jT2uO9rnxk7HUcy9HrCzL/EP12lLSoNVxD5qlcIyK9Mo7KqEdGpTIXTMDYi+4PgZi39mTu9d3To7gZqgmHeR47D7cQrLiHETSYXpMU6IaoCtlLtlHRvmNiRfz7Z0wQyVDT/AAm7L5HrAeR19ZEfhAHTerWrhDmWmxQDMuq6KqhjfbOTrrPoYo1VY5ClWiwurZT+ENYFTYhlaZACIHn7fZygwvGGTqnI5d9wJV5hcQyNdWKnYkb+PnN9QrK63Vgw2uO/0nnVCqGUMuxAI9ZpuS+N/wDFk1JLFh/9vp8psNF4jUqGm7bxz6ea1ukKGszWAuOC00RE6NaVIiIRIiIRIiIRIiIRIiIRIiIRIiIRIiIRIkLHcSp0R021+Eak+kzWP5RVHuE6C+GrHzPZ6fOU8RjqNCzjfcM/rzVijhalW4Ft5Wjx3E6dIdJtfhGp+XZ6zOY/lDUfRf8ATXw6x9ez0lJVqbkn1P1JMhnFM37Nc37zaL+p9JoK+k69eQ39W+HubH0hbrD6OYy5ud5y+OpUuo4AJJ9f1Jkf7yz6Itx8baL6drT8p4O+tQ5z2X0UeSyWFmtADcr8h9+for5LB49PtR6eDF8znOfHYeQ2ki0GV3HeMJhafOOrMCbAKNSbX3OgGm5nv7VHaoudije+0uVjtOWJcqjEKWIUkLsWIBIA89pkuW3EGfhy1aNRlVmUnKbNlIYFbjazWv5S05I4u+Aw5ZtebAN9+iSPykhoOFIVT/sWxwE/SwD5fqeErJUeKYvidU0UqLQp5cxCsbldBqesx1GgsNZveF8OFHDpQLGoqra7gajy2trbyAnnfKNjgeILiKfVds4HZcm1amfMG48/CXFf7QUaqlOjSZwWAY6ggH4V3NvG02GIoVKrG/gb+kTYAQRnJN56qtTe1jiKh/bLjwCseXvDOdw3OKOlSBOg1NP8Q9gfSOQPF+dw/NMenSsuu7If2bfIEfyyxD1X6qMRtqLA+p0mZ4NyKxNHFmqtSmlLUZbktkbXLYC2ht29khpgOoGnUMEXbPMb+WZU1RurVDm3BsflbtagMpeNJUWnVSixRqgzplsCXSxdAToMwG8tcNw8KL5mY28APO2/vINWtnUgaVFNx3hlO3/e+QUhqumxHe/n4W2qYFplpyNvvyXx9xHNCoMXiKSZQxzsugIv0ufU5TrOOB4nRpoXp06tSkXu9c26RvkLHMQzAWAuBYAabT5xPOVK61eYNdMgyLmQLSqAtzhcOd9VswBIsbeNhw/hNqbLVVTnqmoUXqKbhgq94BF9dzc2F7SSGgft585G+3jtmxCgIOsRlE9/0pWEXJUNPsPTTy7R6H6y2wWIam4ZWy9l99Da+kzP35nq1aZUCrQK1EsevTI7fHRgR5S7pVAygjYi/wA9ZgdZhDxnb1tB8xzlS1AKjZ32PH7z4yvQqFdXF1YMNrjvnaUHJnEOyZcgyLfp31JJva3rvful/Otw1b81MP38ffquZrU/xvLdyRESdRJERCJERCJERCJERCJERCJERCJM/wApsdUphQhyhr3I3uOy/ZpNBMvyxxIsidoux8BsPz+Uo6RcWYZxBg2y4i3mrWCbrV2gif6WaqVNyT5k/mTIhxZbSmub946L/n0nGiRVHOPqp6qdgHYSO0yS1cCcnqhtok8vvkOK6cgNsbnl3y4r8GDBN3bOe46KPIfrJDbaSBVx4Gt/ecP/AFEtooLeQJ+m0Frnrwkn+RVqzgT4bEC2+0zpTiDVxanTWgCAS7dJgRqQFvax0taWy8KJvmqHxCr+Z/Seuo6ubh6z6wow5p3+iw/EuVuJxeINHCNzYBNjpdgu7MxGgvbaaDiDNXwvM1SvOlBquo5wbFQdd5P4LyUwuGLMiEsRYs7Fjbe1tBv4S6poFFlAUdygD6SzXxFGW/hEAZGwM8Z9uChpMcATUzOzYvL+D8IxtXCVcM1Coqlg6moQlmzjOOlrY2voD2981vJ3k9Vo4dKVWooK36l2sMxI1Nu/umhdwOswA8TOJxid5b+EE+40ipi31WkNYACdbziM+5JWVHDkEEEm0eUyotfk5h6lhVQ1crZhnYgA+S2k3BcPo0QRSpU6d/hVRf1tc+sLWqHqpb/3GA9hP37u7dapbwp6e51lc1KhGqXW3T7BS/iaDLon1PKV3Zu28jvilBte57lux9pxwuHS7hhmZXIuxJ00I38D7SVQrJluhW17Agi1wbaW7b6THVa0wb8vvosiGtMXPoPnovmljFLBSCpOwYEX8jPjHcMSo2Y3DbZlNj69hnGti1q86lmV6YDAMtjpfKy94OUjSTqNXOoPeAfmJkZbBFu5HqsSGlusOCqyvNMaam5YEjNtnA2Nu8anynFOCM4vicQ7n4KZNKmPABDmb+YyVxs6KAhzXBVgCbEbXOwE7JQepq5svwJ+fafISaf1Dpjfvt34cV4Wh4lx79/pQ8Pw6jSLLh6a84wsz2uQD8TnX0lvQphEVd7ADzAEUaYUWUAAbW0kvCYGpVNkUnxOw8zIy51U6rQST5k99lYuc1ojIBbPhlEJRRR3C/mdT7yZOVBSFUHcAA+YE6ztGANaANkLlnGSSUiImS8SIiESIiESIiESIiESIiESImT4lx+qruihVyki9rnQ766e0r4nFU8O0OftU1Cg+sYatS40NjY9/dPM+UIqLiXUFqu130GpA0vtptpJdfiNWp1qjHwvYfISKW7SdJz+Ox7MQA0NNt59hbnwW4weEdh3EkgzsjvvNUuE4dXUFWZAtyV1LEA62IAtofGTF4aPxOx8rL/n3nV8dTGma57hdj/bPk4pj1aTHuLWUe+soOc8/tEd7ytoW1HXPwuiYGmu1NfM9I/M3khfD/EiFap3ZF8hmPzOk/fuQPWeo3rYfJZG6/8AJ3U/A5rHUaMyPKT9c12rYhV6zqPMi/ynH7/c9BXfxC6fNrTtToUx1UUeIGvz3nUa7zGW7Ae+Hyn6DZPH4HyogaqdlRP4iSfbT3n0uHY71X8lAUe2vvJJsJ9KZ7rmbADvxk80/IdgHfNR0wVMHq3PedT73nZQPSfLsADc2A79PeReI8Sp4eiatViEFtQCd9Ba2+pE8GvUdGZ9brB7jEuKmDfaft5icT9otIfsqLue9iEH5n2l5yW4q+KoGpUomkwcgCxsRYEEZgL77+Enfha1Nmu5sDxjpmom1WOdAK746gXarTDFOdpWDDcGxW49CPlIVThNerSWjUNKjTUqf9vmL3pkMpXMAtPpKDs3d4y0xa2ek/c+U+TC31AlbgeF1umr4iqE5x8irkF0LFlu5BbtOlxDXWmY+cugFsuEXlrNkNtsj0+oUvBUUp1ir1mqVnQavYEopOiBQF0JN7a669klcNboZbaqxX+k6exkNeH4ai6O1uczEK9WoWYk/CahOuvZ3yXhjaq6/FZx9D9J44yLTv8A6jZdKY/Vw8+ce664vMRZSN9fEb/pJfD8I9XRFJ+g8zsJ84awYF1zLfVb2v6ib7BhQi5UyCwOW1rXGx8Zb0fhBiZDnQBsAv8AHU+Co4zEfgiBM+nfLxVTgeTyrY1DmPcL5fW+pl2iACwAAHYJ0idNRw9OiIYI6+a0lSs+oZeUiIkyjSIiESIiESIiESIiESIiESIiEUbG4tKSFnNh2d5PcJ5rj8azVWyrd2JY3OigknU/lNRyvpKCjAnO241IyjtHdrbaY+mMtdh3orD06JHuJzWlK5fVNMxDctskxn5HLnddBoug1tM1MyR0PZ8YhfYoO3Wq28FAHubmfv3Gn2gk/vEn66SRAE1JqO2GOS2IqO2H0t0XyigdUAeVhPot4Tk+LphgnOLnOgXMMx7dBe5lfyi47TwaKzqzBjlAUC97X1JInjabnuAaJJ5qJzg0SVbAT9JkbBYta1JKqdV1DC/cbGx8pj+X/HqyOmGw5IZgCxXrHMcqqD2XO58R4ySlh3Vqn4xn0jP0WL6gY3XK3BbSVo47Q+8fduc/1fhs2lhm61su2u8qeSXJyvhnNStiM+dLMliQGuCDmJ1tqNu2UfKxTh+J064Gjc25P8JyP/aB85NTw1N9U0w6bGCLSd19mfgo31XNYHFsXvwV9xjlWaOLp4ZaOcuaYLZrBeca2gsdbayx5VvUXBVnpMyOq5gRuApBYC/heZBqZrcetplRs3/x0gB/daehVqQdGU7MCp8mFp5WayiaRA/xa47Z47Ml6wl+uCdpAXmHJbk+eIrUeviapyuFKnU6gMDdiQATcWt+GejDhNL7uuGYZ6aoqWbdglspJFtdBrPNuSXGRgalcVAWBGUhSLh6bMut9Nr+03vJjj33xajc2aeRgoub5gQDcGw8Zb0g2vrlw/gIjYBO6IOagw5ZEf5GZWI5f8OXDYii9BAgy3AUALnpMDc+jL8p6bhawqU1cbMoYeoBEyX2mYPPhA/bTqD5N0T7lflJ/ILE85gKV90uh/kJA/ttIK3/ACYVjzmCWnv0UrP1rOA2gFXHEFvSa3dcea6/lK5sPVqYhmFaqiGlTanlylMxLhwQwIP4TbxMuHW+koa9aqDh6aVebBqPTY5A2q02dN9up7ytRkiB3adx/wBQMtsKy+9Pgetl2xeGxdSm1JxhipUqanTzWIsSKJBF/wCe30lhUGWpTPeuS/yIv/SZDr8+VNOth0rqbaqwVWtqMyVNvQtP2jhWpYZc1syNnsLkKM5OVSdwqm3pMxNri5iLbRHHd7LGlGvG+3rbqVdIbEEbjWbrhdV2pKzgBiL6dx2PymDWa7ky96Wr31sF+ECX9D1IrFu8eXe7iVrdIsmmHbj5q7iInTLSpERCJERCJERCJERCJERCJERCJERCKp5SU2bDsFTOfcAakj5e885xhy1KT/vFSfBxb6gT1PG0y9NlVsrEEA908z4zhmVaiHrJ3d6G+h9Jz+lmRWZUOREbI/uJ9lvdD1BBZbPx227hdB3zz7lRwbiDPXq8+eYXM6qKjA5ALkBVFrjbXum/pVMyg94uPUT9r0gylTswIPkQRNPQrOoO1gBPiJ27Feq09cap77zXnHIDk9Tqt94Z3D0auiiwHVBBYkEm9z8ppeX2Ez4Jj203Vx6HK3sxmc+zuqaWMrYdraqR/NRcj6E/Keg47DCpSemdnUr8xaXsbVczFh5MxBHDP5VfDsaaOqBEyDx7hZ/7PsXnweU2vTdl07r5h7Nb0ma5YHm+LUmPfh2HlnIP/EyV9m2KtXrUSbEqGsBYZkYq1v6h/TOv2p4AlaVUDQEoTpoTqhv2a5vmJK2m1mOLDk4H/wBCetlgXE4cEZj2W9ExH2oYPNRpVRurlG36rjtt4qJp+T+PGIwtKqPxL0wPwsNG9wZ8cpcLzmEqqBqFzL5p0h/xmvw7nUK7S7YYPQ8lYqgVKZjaF57yf4mcNiqdeuCVqoRn3sC2Ute17hl1HYD5T1ZddQbg7Eazzfk5gBjsBVoXvVpPnpsdLc4LgHfokqw+XdJ/IDjxv9yrXV0uKebuXdD4ix9L90u42l+TWe0fsyzh4f4u9M+5goP1YBydcHx2j1VZxWmMNxoMV6D1EfUXH+qMhPdoxYz069tJhvtE4LVrVKNSlTZyFZTlB0sQyX7t21M54PhfFqtVHq1ubVXVipcDRTqCtMWNx2EzCqxtalTeXgECIOdrCBn2F6xxpvc3VJvNlruP4TncJVp21ZGt5gXHuBMh9lGOuK9LuZag9RlOnZ1F+c3pMr+F8Bw+HZmo0gpbc3JJF721Ogv2StSxDRQfTO0gjyzUr6ZNQOHjKshKnGYlqKYllXMypzqr3kKQfHdeyW6yLX0rI1usChP9w+h+cgp7e8r+ysNvLfA8r+yzFWsaxpBMdUrMzpmSgAic2T07sgzJYX3a/ZvLvA8OZalZBnWgUVVDuXu9mzMMxJUWKixOpUm3f+HH1XqVUorSVaTAM9QnVioc2VdhZhqT36SqwnF3qCm6VyazOv8At1QZQhcBiSVzWyXbPcA2FhraWxruBDcrc7jIAC3hAB8VUkNM7fi2/wDtajhta9NCd7WPmND9JpOTGIQOVKku2zb2G5B7pluHn9oBsKrW9bE+5M0PJxKvOEoBbZi2wFwdPHSZ4RxGKaRv3TmO77M/Be45g1Xj68e962URE61c0kREIkREIkREIkREIkREIkREIkREIk8941glpVigfNcXN97m+nn/AInoUx/K6iiVFZb521YdlrWB9pqtMUw6gHWsdu45xv2LYaNeRV1d4WU4Wf8ASt2qzL/SdPa0mCQ6GlZ1+IBx/wAT9B85LInNPu6e+5XQVP5Tvv6ieq804un3bjaVbdFqiMTra1Uc21/W5npcx/Lvk7WxLUmohcwBVrsFsNCp8bG/zmuohsozdawvba9tbeF5ZxL21KdN03jVI3RkqtJpY94i0yO/RedP/teMX2U1fAaYge/SY/0ze8W4emIovRcdFxa43B3BHiDY+kjY/k/QrVRVqIS4AA6RAOVsy3A3sTLUTCviA/Uc2xAA9Lj5WVOnGsDkSvNMJwHieCZxRYsCR1ShV99StQ9E2t+s1/JLCYlKBGLfM7OWsWzWDAaE7bgmw0F5eR2zyvjX1gQ5rZMSQLmF5ToNYZBPCbKg5OcmEwb1GSozZ7C1gAAp0tuTv3y2pcMo86a3NJzp3fKuba2+400kkz6KSF9apUcXuMk97FIGNa2BZfpjznF6wXrMB5m31nL/ANQQ6KWP8Kk++0xaxzhICkDHOyCmIO2fhEiivUbqoB4v+i3n0KNQ9arbwSw9zczLUtcjr0leakG5HXou7G25tIWOxKkLlYFldWAGp6J1GnhedVwK7m7H94k/WSUpgbADymbS1t8+XyvQ5rTI+PlVWK4dRrPnOFV206VVQL22uO23iJN5tm0Zwo7kGvlmO3oJKUa2EnUuEV32ptb97oj3mTC+pAYJjcC75jyAUbntp3sPE/dlX0KIUBFFh2CehYHDCkioOwfM9plBhuTbXBd1Gt7AE+PhNRN9ovDVKZe+qIJiOc+y02PxDakBpnMnikRE3C1qREQiREQiREQiREQiREQiREQiREQiSi5UonM5mS7XAVgOrfXU92kvZGxisabBAC1jYHYnxkOIp/kpuZvB2TyUlJ+o8O3HgvLcX0atJu85D5MLj3USZa8jcXwzBWW3TpkG3ihudvIzrQxdNlzB1t5icaWkgSMrHvvautddoI4e/uugn7aRzjUvocx7lBY+0/Kldz1aTDxay+2pmGo7+7dV5+N20KSTP1T3SIyVW3dV/hFz82/SPuIPXZn82NvkLCNVs3PL+k1WjM9T8Dmu1XFU16zqPC/5bzl98v1Edr+Fh8zadqdBV6qAeQn36RLBs78vlBqjIT5+w+VGvVPYi+ZLH2sJ+jCsetVc+Aso9tfeT6GHZ9FVm8gT9JYYfk7WbWwX+I/kLySlSq1f+pnoPe/VRvxLaf8AIhvp/aoEwCD8Av46n5mSFUWmpw/JcfjqE/wi3uf0ljhuB0E2S57219tpdZojE1LvgcTPz1VOppOlvLj3vWISkWNlBY+V/pLHDcDrv/4yvixA/wA+02tKmFFlAA8BadZfpaEpi9RxPC3yVTfpRx/i2OJn4WYw3Jf46g/lF/c/pLGhwGgu6lj+8T9BpLaJfp6PwzMmDzv1VR+LrPzd6W6LhRoInVVV8gB9J3iJcFhCrJERCJERCJERCJERCJERCJERCJERCJERCJERCJERCLJYzku+rLUDtvZhYk+dzr5zNVcCoY5qa5gbG6i9+2+k9SlBxfgPPVc4YLcANpckjY/I+00eN0YA3WoAzunOeJ97rbYXSDg6KptvjlZY6mLaWsPDSfW82FHk1SHWLN7D2195ZUOHUk6tNR42ufmdZWp6GrG7iBzPL5Ur9JUh/EE8lhaOBqv1KbHxA0+cssNyZrHcqnmbn5D9ZtIl2noWiP5uJ5D55qs/SdQ/xAHNZ7D8l0HXct5AL+sscPwmim1NfM9I/wB0sIl+ng6FO7WCd8SfUyeaqPxNZ/8AJx78BZfgFtp+xEsqBIiIRIiIRIiIRIiIRIiIRIiIRIiIRIiIRIiIRIiIRIiIRf/Z;" vertex="1" parent="7">
                    <mxGeometry x="450" y="70" width="290" height="174" as="geometry"/>
                </mxCell>
            </root>
        </mxGraphModel>
    </diagram>
</mxfile>